<?xml version="1.0" standalone="no"?>
<!DOCTYPE svg PUBLIC "-//W3C//DTD SVG 20010904//EN"
 "http://www.w3.org/TR/2001/REC-SVG-20010904/DTD/svg10.dtd">
<svg version="1.0" xmlns="http://www.w3.org/2000/svg"
 width="500.000000pt" height="500.000000pt" viewBox="0 0 500.000000 500.000000"
 preserveAspectRatio="xMidYMid meet">
<metadata>
Created by potrace 1.14, written by Peter Selinger 2001-2017
</metadata>
<g transform="translate(0.000000,500.000000) scale(0.100000,-0.100000)"
fill="#000000" stroke="none">
<path d="M2131 4719 c-41 -16 -81 -50 -99 -82 -14 -27 -18 -68 -22 -241 l-5
-208 -95 -34 c-52 -19 -132 -51 -176 -73 l-81 -39 -129 130 c-164 165 -203
186 -301 166 -45 -9 -63 -25 -291 -252 -134 -132 -249 -252 -256 -266 -22 -42
-26 -89 -14 -138 10 -41 30 -66 153 -192 l142 -145 -44 -93 c-25 -51 -57 -130
-72 -175 l-28 -82 -210 -5 c-208 -5 -210 -5 -251 -33 -23 -15 -51 -45 -62 -67
-19 -37 -20 -58 -20 -384 0 -219 4 -355 11 -373 5 -15 22 -41 37 -56 55 -58
70 -62 291 -67 l203 -5 32 -90 c18 -49 51 -129 73 -176 l41 -87 -135 -133
c-74 -74 -142 -147 -150 -164 -21 -39 -21 -131 0 -170 23 -43 487 -502 520
-515 42 -15 124 -12 160 6 18 9 93 77 168 151 l135 134 94 -45 c51 -25 130
-58 176 -73 l83 -27 3 -211 3 -212 29 -41 c16 -24 46 -50 71 -62 42 -20 56
-21 398 -18 l355 3 39 31 c21 16 48 50 61 74 21 41 22 57 22 240 l0 195 98 34
c53 18 132 51 176 73 l79 40 141 -141 c78 -77 154 -144 169 -150 40 -15 122
-14 160 3 18 7 141 123 273 257 226 228 242 247 252 292 6 31 6 63 -1 95 -9
42 -24 61 -154 193 l-144 146 46 93 c24 51 57 130 72 176 l27 83 212 3 212 3
39 31 c21 16 48 50 61 74 22 43 22 51 22 380 0 370 -2 382 -66 442 -47 44 -73
48 -283 48 l-197 0 -22 71 c-12 39 -44 119 -71 179 l-48 108 120 119 c150 148
177 188 177 261 0 30 -7 69 -15 86 -9 18 -125 141 -258 273 -226 225 -245 241
-289 251 -32 6 -64 6 -95 0 -43 -9 -62 -24 -193 -153 l-145 -142 -75 35 c-41
20 -120 52 -175 73 l-100 37 -5 204 c-5 220 -9 235 -67 290 -15 15 -41 32 -56
37 -36 14 -702 14 -736 0z m481 -501 c3 -118 6 -139 29 -189 32 -68 87 -131
143 -164 23 -13 83 -38 134 -54 51 -17 145 -57 210 -88 l116 -58 101 0 c89 1
106 4 158 29 34 16 92 60 143 109 l85 80 77 -76 77 -77 -82 -82 c-47 -48 -94
-106 -110 -138 -25 -50 -28 -65 -28 -160 l0 -106 56 -114 c31 -63 70 -158 88
-211 39 -118 74 -175 141 -228 74 -58 155 -81 291 -81 l109 0 0 -109 0 -109
-132 -4 c-118 -3 -139 -6 -189 -29 -65 -31 -131 -87 -165 -141 -13 -20 -38
-79 -55 -130 -17 -51 -57 -147 -88 -213 l-56 -120 0 -105 c0 -96 3 -110 29
-160 16 -30 65 -92 109 -138 l81 -83 -76 -76 -77 -77 -86 83 c-119 114 -168
136 -300 136 l-100 0 -120 -57 c-66 -32 -160 -71 -209 -88 -152 -51 -222 -107
-275 -219 -23 -50 -26 -71 -29 -188 l-4 -133 -108 0 -107 0 -5 128 c-6 139
-19 186 -75 266 -44 62 -120 109 -238 149 -55 19 -136 52 -180 74 -126 63
-175 76 -269 71 -109 -6 -160 -32 -269 -137 l-88 -85 -77 77 -76 76 70 73 c38
40 81 88 93 106 32 46 61 143 61 205 0 71 -14 115 -70 232 -27 55 -63 143 -81
195 -77 227 -192 310 -429 310 l-110 0 0 109 0 109 128 4 c143 5 186 18 268
79 66 48 107 114 145 230 17 51 56 148 87 214 57 120 57 120 57 215 0 128 -25
182 -137 297 l-82 84 76 76 77 77 86 -83 c117 -112 168 -136 295 -136 l95 0
130 61 c72 34 162 72 200 84 151 49 226 108 279 220 28 60 31 76 34 193 l4
127 108 0 108 0 4 -132z"/>
<path d="M2390 3464 c-334 -42 -624 -250 -766 -549 -194 -410 -74 -910 285
-1181 388 -293 913 -262 1263 74 253 243 348 592 257 947 -85 335 -373 611
-717 689 -74 17 -257 28 -322 20z m229 -389 c170 -36 326 -156 401 -310 117
-238 66 -519 -126 -694 -113 -104 -242 -154 -394 -154 -283 0 -516 191 -575
470 -18 86 -18 150 0 235 67 316 378 520 694 453z"/>
</g>
</svg>
