<?xml version="1.0" standalone="no"?>
<!DOCTYPE svg PUBLIC "-//W3C//DTD SVG 20010904//EN"
 "http://www.w3.org/TR/2001/REC-SVG-20010904/DTD/svg10.dtd">
<svg version="1.0" xmlns="http://www.w3.org/2000/svg"
 width="500.000000pt" height="500.000000pt" viewBox="0 0 500.000000 500.000000"
 preserveAspectRatio="xMidYMid meet">
<metadata>
Config Manager by geduramc
</metadata>
<g transform="translate(0.000000,500.000000) scale(0.100000,-0.100000)"
fill="#000000" stroke="none">
<path d="M2214 4985 c-373 -49 -667 -147 -974 -324 -352 -204 -646 -489 -866
-841 -176 -280 -315 -665 -349 -965 -4 -33 -10 -69 -12 -80 -10 -38 -11 -450
-2 -520 5 -38 11 -92 15 -120 24 -207 119 -513 227 -735 64 -132 231 -401 267
-430 4 -3 11 -13 16 -22 14 -26 110 -132 197 -219 226 -225 486 -401 786 -531
176 -76 455 -154 626 -173 33 -4 69 -9 80 -12 11 -2 99 -7 195 -10 199 -6 356
6 565 43 111 20 309 78 430 125 367 145 690 370 955 665 220 243 420 597 514
904 79 260 106 437 111 720 4 204 1 244 -30 470 -9 63 -50 226 -87 345 -46
150 -131 341 -216 485 -46 77 -140 221 -151 230 -3 3 -26 31 -49 63 -93 124
-264 295 -414 413 -60 46 -110 84 -113 84 -3 0 -11 5 -18 10 -7 6 -34 25 -62
43 -300 193 -627 316 -970 368 -38 5 -83 12 -100 15 -71 13 -473 12 -571 -1z"/>
</g>
</svg>
